<svg xmlns="http://www.w3.org/2000/svg" font-family="-apple-system,Segoe UI,Roboto,Helvetica,Arial,sans-serif" viewBox="0 0 760 1284">
<rect width="760" height="1284" fill="#ffffff"/>
<rect x="16" y="16" width="728" height="104" rx="14" fill="#0F6E56"/>
<text x="40" y="58" font-size="22" font-weight="600" fill="#ffffff">Pickup Football 사용 설명</text>
<text x="40" y="84" font-size="13" fill="#bfe6d8">회원가입 없이 · PIN으로 예약과 신청 관리</text>
<text x="40" y="104" font-size="12" fill="#9FE1CB">bidabrain.github.io/pickup-soccer-web</text>
<rect x="16" y="136" width="728" height="182" rx="12" fill="#ffffff" stroke="#e5e7eb"/>
<circle cx="40" cy="160" r="13" fill="#1D9E75"/><text x="40" y="165" font-size="14" font-weight="600" fill="#ffffff" text-anchor="middle">1</text>
<text x="64" y="166" font-size="16" font-weight="600" fill="#0b3d33">홈 · 경기 둘러보기</text>
<text x="40" y="190" font-size="13" font-weight="600" fill="#1D9E75">①</text>
<text x="64" y="190" font-size="13" fill="#374151">사이트를 열면 모든 예약 경기가 보입니다 (로그인 불필요)</text>
<text x="40" y="214" font-size="13" font-weight="600" fill="#1D9E75">②</text>
<text x="64" y="214" font-size="13" fill="#374151">배지로 상태 표시: 모집중 / 마감+대기 / 종료(회색)</text>
<text x="40" y="238" font-size="13" font-weight="600" fill="#1D9E75">③</text>
<text x="64" y="238" font-size="13" fill="#374151">카드를 눌러 상세 보기, 공유를 눌러 링크 복사</text>
<text x="40" y="262" font-size="13" font-weight="600" fill="#1D9E75">④</text>
<text x="64" y="262" font-size="13" fill="#374151">오른쪽 아래 + 로 새 예약 만들기</text>
<text x="40" y="286" font-size="13" font-weight="600" fill="#1D9E75">⑤</text>
<text x="64" y="286" font-size="13" fill="#374151">오른쪽 위에서 언어 전환: 中文 / English / 한국어</text>
<rect x="560" y="154" width="168" height="150" rx="12" fill="#f9fafb" stroke="#e5e7eb"/><path d="M560 166 a12 12 0 0 1 12 -12 h144 a12 12 0 0 1 12 12 v12 h-168 z" fill="#0F6E56"/><text x="572" y="170" font-size="9" fill="#ffffff">Pickup Football</text><rect x="572" y="186" width="144" height="40" rx="6" fill="#ffffff" stroke="#eeeeee"/><text x="580" y="200" font-size="9" fill="#374151">금 19:00</text><text x="580" y="216" font-size="8" fill="#9ca3af">강변 · ₩1만</text><rect x="668" y="190" width="48" height="15" rx="7" fill="#FAEEDA"/><text x="692" y="201" font-size="8" fill="#854F0B" text-anchor="middle">2명 부족</text><rect x="572" y="234" width="144" height="40" rx="6" fill="#ffffff" stroke="#eeeeee"/><text x="580" y="248" font-size="9" fill="#374151">토 20:30</text><text x="580" y="264" font-size="8" fill="#9ca3af">대학로 구장</text><rect x="680" y="238" width="36" height="15" rx="7" fill="#E1F5EE"/><text x="698" y="249" font-size="8" fill="#0F6E56" text-anchor="middle">마감</text><circle cx="704" cy="282" r="13" fill="#1D9E75"/><text x="704" y="287" font-size="17" fill="#ffffff" text-anchor="middle">+</text>
<rect x="16" y="332" width="728" height="198" rx="12" fill="#ffffff" stroke="#e5e7eb"/>
<circle cx="40" cy="356" r="13" fill="#1D9E75"/><text x="40" y="361" font-size="14" font-weight="600" fill="#ffffff" text-anchor="middle">2</text>
<text x="64" y="362" font-size="16" font-weight="600" fill="#0b3d33">새 예약 만들기</text>
<text x="40" y="386" font-size="13" font-weight="600" fill="#1D9E75">①</text>
<text x="64" y="386" font-size="13" fill="#374151">시간대(기본 KST)와 날짜(오늘부터 7일 이내) 선택</text>
<text x="40" y="410" font-size="13" font-weight="600" fill="#1D9E75">②</text>
<text x="64" y="410" font-size="13" fill="#374151">시간, 장소, 1인 참가비(₩), 출전 인원 입력; 메모는 선택</text>
<text x="40" y="434" font-size="13" font-weight="600" fill="#1D9E75">③</text>
<text x="64" y="434" font-size="13" fill="#374151">6자리 관리 PIN 설정 — 이후 이 경기 수정/삭제에 필요</text>
<text x="40" y="458" font-size="13" font-weight="600" fill="#1D9E75">④</text>
<text x="64" y="458" font-size="13" fill="#374151">예약 만들기 누르면 홈 목록에 표시</text>
<rect x="560" y="350" width="168" height="172" rx="12" fill="#f9fafb" stroke="#e5e7eb"/><path d="M560 362 a12 12 0 0 1 12 -12 h144 a12 12 0 0 1 12 12 v12 h-168 z" fill="#0F6E56"/><text x="572" y="366" font-size="9" fill="#ffffff">← 만들기</text><rect x="572" y="382" width="144" height="17" rx="4" fill="#ffffff" stroke="#dfe3e8"/><text x="578" y="394" font-size="8.5" fill="#9ca3af">시간대</text><rect x="572" y="404" width="144" height="17" rx="4" fill="#ffffff" stroke="#dfe3e8"/><text x="578" y="416" font-size="8.5" fill="#9ca3af">날짜</text><rect x="572" y="426" width="144" height="17" rx="4" fill="#ffffff" stroke="#dfe3e8"/><text x="578" y="438" font-size="8.5" fill="#9ca3af">시간 / 장소</text><rect x="572" y="448" width="144" height="17" rx="4" fill="#ffffff" stroke="#dfe3e8"/><text x="578" y="460" font-size="8.5" fill="#9ca3af">참가비 / 인원</text><text x="572" y="474" font-size="8" fill="#854F0B">관리 PIN</text><rect x="572" y="482" width="17" height="20" rx="4" fill="#ffffff" stroke="#cbd5e1"/><rect x="594" y="482" width="17" height="20" rx="4" fill="#ffffff" stroke="#cbd5e1"/><rect x="616" y="482" width="17" height="20" rx="4" fill="#ffffff" stroke="#cbd5e1"/><rect x="638" y="482" width="17" height="20" rx="4" fill="#ffffff" stroke="#cbd5e1"/><rect x="660" y="482" width="17" height="20" rx="4" fill="#ffffff" stroke="#cbd5e1"/><rect x="682" y="482" width="17" height="20" rx="4" fill="#ffffff" stroke="#cbd5e1"/><rect x="572" y="510" width="144" height="22" rx="6" fill="#1D9E75"/><text x="644" y="525" font-size="9.5" fill="#ffffff" text-anchor="middle">만들기</text>
<rect x="16" y="544" width="728" height="182" rx="12" fill="#ffffff" stroke="#e5e7eb"/>
<circle cx="40" cy="568" r="13" fill="#1D9E75"/><text x="40" y="573" font-size="14" font-weight="600" fill="#ffffff" text-anchor="middle">3</text>
<text x="64" y="574" font-size="16" font-weight="600" fill="#0b3d33">신청하기</text>
<text x="40" y="598" font-size="13" font-weight="600" fill="#1D9E75">①</text>
<text x="64" y="598" font-size="13" fill="#374151">경기에 들어가 신청하기 누르기</text>
<text x="40" y="622" font-size="13" font-weight="600" fill="#1D9E75">②</text>
<text x="64" y="622" font-size="13" fill="#374151">이름 입력 + 6자리 개인 PIN 설정</text>
<text x="40" y="646" font-size="13" font-weight="600" fill="#1D9E75">③</text>
<text x="64" y="646" font-size="13" fill="#374151">같은 경기 내 PIN은 중복 불가 (중복 시 변경 요청)</text>
<text x="40" y="670" font-size="13" font-weight="600" fill="#1D9E75">④</text>
<text x="64" y="670" font-size="13" fill="#374151">인원이 차면 이후 신청은 자동으로 대기 명단으로</text>
<text x="40" y="694" font-size="13" font-weight="600" fill="#1D9E75">⑤</text>
<text x="64" y="694" font-size="13" fill="#374151">친구 여러 명도 신청 가능 (각각 다른 이름 + PIN)</text>
<rect x="560" y="562" width="168" height="150" rx="12" fill="#f9fafb" stroke="#e5e7eb"/><path d="M560 574 a12 12 0 0 1 12 -12 h144 a12 12 0 0 1 12 12 v12 h-168 z" fill="#0F6E56"/><text x="572" y="578" font-size="9" fill="#ffffff">← 상세</text><rect x="572" y="596" width="144" height="96" rx="8" fill="#ffffff" stroke="#eeeeee"/><text x="580" y="610" font-size="9.5" fill="#374151">신청하기</text><rect x="580" y="618" width="128" height="16" rx="4" fill="#f3f4f6"/><text x="584" y="629" font-size="8" fill="#9ca3af">이름</text><rect x="578" y="642" width="17" height="20" rx="4" fill="#ffffff" stroke="#cbd5e1"/><rect x="600" y="642" width="17" height="20" rx="4" fill="#ffffff" stroke="#cbd5e1"/><rect x="622" y="642" width="17" height="20" rx="4" fill="#ffffff" stroke="#cbd5e1"/><rect x="644" y="642" width="17" height="20" rx="4" fill="#ffffff" stroke="#cbd5e1"/><rect x="666" y="642" width="17" height="20" rx="4" fill="#ffffff" stroke="#cbd5e1"/><rect x="688" y="642" width="17" height="20" rx="4" fill="#ffffff" stroke="#cbd5e1"/><rect x="580" y="670" width="128" height="18" rx="5" fill="#1D9E75"/><text x="644" y="682" font-size="8.5" fill="#ffffff" text-anchor="middle">확정</text>
<rect x="16" y="740" width="728" height="182" rx="12" fill="#ffffff" stroke="#e5e7eb"/>
<circle cx="40" cy="764" r="13" fill="#1D9E75"/><text x="40" y="769" font-size="14" font-weight="600" fill="#ffffff" text-anchor="middle">4</text>
<text x="64" y="770" font-size="16" font-weight="600" fill="#0b3d33">내 신청 관리</text>
<text x="40" y="794" font-size="13" font-weight="600" fill="#1D9E75">①</text>
<text x="64" y="794" font-size="13" fill="#374151">명단에서 본인 이름 누르기</text>
<text x="40" y="818" font-size="13" font-weight="600" fill="#1D9E75">②</text>
<text x="64" y="818" font-size="13" fill="#374151">신청 시 설정한 개인 PIN 입력</text>
<text x="40" y="842" font-size="13" font-weight="600" fill="#1D9E75">③</text>
<text x="64" y="842" font-size="13" fill="#374151">이름 수정 또는 본인 신청 삭제</text>
<text x="40" y="866" font-size="13" font-weight="600" fill="#1D9E75">④</text>
<text x="64" y="866" font-size="13" fill="#374151">"참가비 납부" 토글을 켜고 저장하면 명단에 초록색 "납부" 표시</text>
<text x="40" y="890" font-size="13" font-weight="600" fill="#b91c1c">!</text>
<text x="64" y="890" font-size="13" fill="#b91c1c">PIN 10회 연속 오류 시 약 10분 잠김 (추측 방지)</text>
<rect x="560" y="758" width="168" height="152" rx="12" fill="#f9fafb" stroke="#e5e7eb"/><path d="M560 770 a12 12 0 0 1 12 -12 h144 a12 12 0 0 1 12 12 v12 h-168 z" fill="#0F6E56"/><text x="572" y="774" font-size="9" fill="#ffffff">← 명단</text><rect x="572" y="788" width="144" height="18" rx="4" fill="#ffffff" stroke="#eeeeee"/><text x="578" y="801" font-size="8.5" fill="#6b7280">1. 민준</text><rect x="572" y="810" width="144" height="18" rx="4" fill="#E1F5EE"/><text x="578" y="823" font-size="8.5" fill="#0F6E56">2. 서연</text><rect x="686" y="813" width="30" height="12" rx="6" fill="#CFEDE2"/><text x="701" y="822" font-size="7.5" fill="#0F6E56" text-anchor="middle">납부</text><rect x="572" y="832" width="144" height="18" rx="4" fill="#ffffff" stroke="#eeeeee"/><text x="578" y="845" font-size="8.5" fill="#6b7280">3. 지호</text><rect x="572" y="858" width="144" height="28" rx="6" fill="#ffffff" stroke="#e5e7eb"/><text x="580" y="876" font-size="8.5" fill="#374151">참가비 납부</text><rect x="682" y="863" width="30" height="18" rx="9" fill="#1D9E75"/><circle cx="705" cy="872" r="7" fill="#ffffff"/>
<rect x="16" y="936" width="728" height="158" rx="12" fill="#ffffff" stroke="#e5e7eb"/>
<circle cx="40" cy="960" r="13" fill="#1D9E75"/><text x="40" y="965" font-size="14" font-weight="600" fill="#ffffff" text-anchor="middle">5</text>
<text x="64" y="966" font-size="16" font-weight="600" fill="#0b3d33">주최자 기능 (관리 PIN)</text>
<text x="40" y="990" font-size="13" font-weight="600" fill="#1D9E75">①</text>
<text x="64" y="990" font-size="13" fill="#374151">경기 수정: 시간/장소/참가비/인원 변경 가능; 날짜는 변경 불가</text>
<text x="40" y="1014" font-size="13" font-weight="600" fill="#1D9E75">②</text>
<text x="64" y="1014" font-size="13" fill="#374151">경기 삭제: 시작 전만 가능, 전체 신청 제거, 재확인 필요</text>
<text x="40" y="1038" font-size="13" font-weight="600" fill="#1D9E75">③</text>
<text x="64" y="1038" font-size="13" fill="#374151">무작위로 주장 2명 뽑기 (파랑/빨강 표시, 다시 뽑기 가능)</text>
<text x="40" y="1062" font-size="13" font-weight="600" fill="#b91c1c">!</text>
<text x="64" y="1062" font-size="13" fill="#b91c1c">모두 관리 PIN 필요; 단 신청 명단 자체는 수정 불가</text>
<rect x="560" y="954" width="168" height="132" rx="12" fill="#f9fafb" stroke="#e5e7eb"/><path d="M560 966 a12 12 0 0 1 12 -12 h144 a12 12 0 0 1 12 12 v12 h-168 z" fill="#0F6E56"/><text x="572" y="970" font-size="9" fill="#ffffff">← 상세</text><rect x="572" y="988" width="50" height="16" rx="8" fill="#E6F1FB"/><text x="597" y="999" font-size="8" fill="#185FA5" text-anchor="middle">민준</text><rect x="630" y="988" width="50" height="16" rx="8" fill="#FCEBEB"/><text x="655" y="999" font-size="8" fill="#A32D2D" text-anchor="middle">서연</text><rect x="572" y="1020" width="46" height="22" rx="5" fill="#ffffff" stroke="#cbd5e1"/><text x="595" y="1034" font-size="8" fill="#374151" text-anchor="middle">주장</text><rect x="622" y="1020" width="46" height="22" rx="5" fill="#ffffff" stroke="#cbd5e1"/><text x="645" y="1034" font-size="8" fill="#374151" text-anchor="middle">수정</text><rect x="672" y="1020" width="46" height="22" rx="5" fill="#ffffff" stroke="#cbd5e1"/><text x="695" y="1034" font-size="8" fill="#374151" text-anchor="middle">삭제</text>
<rect x="16" y="1108" width="728" height="158" rx="12" fill="#ffffff" stroke="#e5e7eb"/>
<circle cx="40" cy="1132" r="13" fill="#1D9E75"/><text x="40" y="1137" font-size="14" font-weight="600" fill="#ffffff" text-anchor="middle">6</text>
<text x="64" y="1138" font-size="16" font-weight="600" fill="#0b3d33">규칙 요약</text>
<text x="40" y="1162" font-size="13" font-weight="600" fill="#9ca3af">•</text>
<text x="64" y="1162" font-size="13" fill="#374151">PIN: 관리 PIN은 경기 전체, 개인 PIN은 본인; 경기 내 고유</text>
<text x="40" y="1186" font-size="13" font-weight="600" fill="#9ca3af">•</text>
<text x="64" y="1186" font-size="13" fill="#374151">만료: 시작 후 회색 읽기전용; 30일 후 자동 삭제, 링크도 만료</text>
<text x="40" y="1210" font-size="13" font-weight="600" fill="#9ca3af">•</text>
<text x="64" y="1210" font-size="13" fill="#374151">공유: 각 경기 고정 링크를 친구에게 전달</text>
<text x="40" y="1234" font-size="13" font-weight="600" fill="#9ca3af">•</text>
<text x="64" y="1234" font-size="13" fill="#374151">대기: 마감 시 대기 명단; 누군가 빠지면 순서대로 자동 승급</text>
<rect x="560" y="1126" width="168" height="124" rx="12" fill="#f9fafb" stroke="#e5e7eb"/><path d="M560 1138 a12 12 0 0 1 12 -12 h144 a12 12 0 0 1 12 12 v12 h-168 z" fill="#0F6E56"/><rect x="572" y="1156" width="68" height="34" rx="6" fill="#f3f4f6"/><circle cx="584" cy="1173" r="5" fill="#1D9E75"/><text x="594" y="1177" font-size="9" fill="#374151">PIN</text><rect x="648" y="1156" width="68" height="34" rx="6" fill="#f3f4f6"/><circle cx="660" cy="1173" r="5" fill="#185FA5"/><text x="670" y="1177" font-size="9" fill="#374151">만료</text><rect x="572" y="1198" width="68" height="34" rx="6" fill="#f3f4f6"/><circle cx="584" cy="1215" r="5" fill="#BA7517"/><text x="594" y="1219" font-size="9" fill="#374151">공유</text><rect x="648" y="1198" width="68" height="34" rx="6" fill="#f3f4f6"/><circle cx="660" cy="1215" r="5" fill="#A32D2D"/><text x="670" y="1219" font-size="9" fill="#374151">대기</text>
</svg>
