<svg xmlns="http://www.w3.org/2000/svg" font-family="-apple-system,Segoe UI,Roboto,Helvetica,Arial,sans-serif" viewBox="0 0 760 1244">
<rect width="760" height="1244" fill="#ffffff"/>
<rect x="16" y="16" width="728" height="104" rx="14" fill="#0F6E56"/>
<text x="40" y="58" font-size="22" font-weight="600" fill="#ffffff">Pickup Football 사용 설명</text>
<text x="40" y="84" font-size="13" fill="#bfe6d8">회원가입 없이 · PIN으로 예약과 신청 관리</text>
<text x="40" y="104" font-size="12" fill="#9FE1CB">bidabrain.github.io/pickup-soccer-web</text>
<rect x="16" y="136" width="728" height="182" rx="12" fill="#ffffff" stroke="#e5e7eb"/>
<circle cx="40" cy="160" r="13" fill="#1D9E75"/><text x="40" y="165" font-size="14" font-weight="600" fill="#ffffff" text-anchor="middle">1</text>
<text x="64" y="166" font-size="16" font-weight="600" fill="#0b3d33">홈 · 경기 둘러보기</text>
<text x="40" y="190" font-size="13" font-weight="600" fill="#1D9E75">①</text>
<text x="64" y="190" font-size="13" fill="#374151">사이트를 열면 모든 예약 경기가 보입니다 (로그인 불필요)</text>
<text x="40" y="214" font-size="13" font-weight="600" fill="#1D9E75">②</text>
<text x="64" y="214" font-size="13" fill="#374151">배지로 상태 표시: 모집중 / 마감+대기 / 종료(회색)</text>
<text x="40" y="238" font-size="13" font-weight="600" fill="#1D9E75">③</text>
<text x="64" y="238" font-size="13" fill="#374151">카드를 눌러 상세 보기, 공유를 눌러 링크 복사</text>
<text x="40" y="262" font-size="13" font-weight="600" fill="#1D9E75">④</text>
<text x="64" y="262" font-size="13" fill="#374151">오른쪽 아래 + 로 새 예약 만들기</text>
<text x="40" y="286" font-size="13" font-weight="600" fill="#1D9E75">⑤</text>
<text x="64" y="286" font-size="13" fill="#374151">오른쪽 위에서 언어 전환: 中文 / English / 한국어</text>
<rect x="16" y="332" width="728" height="158" rx="12" fill="#ffffff" stroke="#e5e7eb"/>
<circle cx="40" cy="356" r="13" fill="#1D9E75"/><text x="40" y="361" font-size="14" font-weight="600" fill="#ffffff" text-anchor="middle">2</text>
<text x="64" y="362" font-size="16" font-weight="600" fill="#0b3d33">새 예약 만들기</text>
<text x="40" y="386" font-size="13" font-weight="600" fill="#1D9E75">①</text>
<text x="64" y="386" font-size="13" fill="#374151">시간대(기본 KST)와 날짜(오늘부터 7일 이내) 선택</text>
<text x="40" y="410" font-size="13" font-weight="600" fill="#1D9E75">②</text>
<text x="64" y="410" font-size="13" fill="#374151">시간, 장소, 1인 참가비(₩), 출전 인원 입력; 메모는 선택</text>
<text x="40" y="434" font-size="13" font-weight="600" fill="#1D9E75">③</text>
<text x="64" y="434" font-size="13" fill="#374151">6자리 관리 PIN 설정 — 이후 이 경기 수정/삭제에 필요</text>
<text x="40" y="458" font-size="13" font-weight="600" fill="#1D9E75">④</text>
<text x="64" y="458" font-size="13" fill="#374151">예약 만들기 누르면 홈 목록에 표시</text>
<rect x="16" y="504" width="728" height="182" rx="12" fill="#ffffff" stroke="#e5e7eb"/>
<circle cx="40" cy="528" r="13" fill="#1D9E75"/><text x="40" y="533" font-size="14" font-weight="600" fill="#ffffff" text-anchor="middle">3</text>
<text x="64" y="534" font-size="16" font-weight="600" fill="#0b3d33">신청하기</text>
<text x="40" y="558" font-size="13" font-weight="600" fill="#1D9E75">①</text>
<text x="64" y="558" font-size="13" fill="#374151">경기에 들어가 신청하기 누르기</text>
<text x="40" y="582" font-size="13" font-weight="600" fill="#1D9E75">②</text>
<text x="64" y="582" font-size="13" fill="#374151">이름 입력 + 6자리 개인 PIN 설정</text>
<text x="40" y="606" font-size="13" font-weight="600" fill="#1D9E75">③</text>
<text x="64" y="606" font-size="13" fill="#374151">같은 경기 내 PIN은 중복 불가 (중복 시 변경 요청)</text>
<text x="40" y="630" font-size="13" font-weight="600" fill="#1D9E75">④</text>
<text x="64" y="630" font-size="13" fill="#374151">인원이 차면 이후 신청은 자동으로 대기 명단으로</text>
<text x="40" y="654" font-size="13" font-weight="600" fill="#1D9E75">⑤</text>
<text x="64" y="654" font-size="13" fill="#374151">친구 여러 명도 신청 가능 (각각 다른 이름 + PIN)</text>
<rect x="16" y="700" width="728" height="182" rx="12" fill="#ffffff" stroke="#e5e7eb"/>
<circle cx="40" cy="724" r="13" fill="#1D9E75"/><text x="40" y="729" font-size="14" font-weight="600" fill="#ffffff" text-anchor="middle">4</text>
<text x="64" y="730" font-size="16" font-weight="600" fill="#0b3d33">내 신청 관리</text>
<text x="40" y="754" font-size="13" font-weight="600" fill="#1D9E75">①</text>
<text x="64" y="754" font-size="13" fill="#374151">명단에서 본인 이름 누르기</text>
<text x="40" y="778" font-size="13" font-weight="600" fill="#1D9E75">②</text>
<text x="64" y="778" font-size="13" fill="#374151">신청 시 설정한 개인 PIN 입력</text>
<text x="40" y="802" font-size="13" font-weight="600" fill="#1D9E75">③</text>
<text x="64" y="802" font-size="13" fill="#374151">이름 수정 또는 본인 신청 삭제</text>
<text x="40" y="826" font-size="13" font-weight="600" fill="#1D9E75">④</text>
<text x="64" y="826" font-size="13" fill="#374151">"참가비 납부" 토글을 켜고 저장하면 명단에 초록색 "납부" 표시</text>
<text x="40" y="850" font-size="13" font-weight="600" fill="#b91c1c">!</text>
<text x="64" y="850" font-size="13" fill="#b91c1c">PIN 10회 연속 오류 시 약 10분 잠김 (추측 방지)</text>
<rect x="16" y="896" width="728" height="158" rx="12" fill="#ffffff" stroke="#e5e7eb"/>
<circle cx="40" cy="920" r="13" fill="#1D9E75"/><text x="40" y="925" font-size="14" font-weight="600" fill="#ffffff" text-anchor="middle">5</text>
<text x="64" y="926" font-size="16" font-weight="600" fill="#0b3d33">주최자 기능 (관리 PIN)</text>
<text x="40" y="950" font-size="13" font-weight="600" fill="#1D9E75">①</text>
<text x="64" y="950" font-size="13" fill="#374151">경기 수정: 시간/장소/참가비/인원 변경 가능; 날짜는 변경 불가</text>
<text x="40" y="974" font-size="13" font-weight="600" fill="#1D9E75">②</text>
<text x="64" y="974" font-size="13" fill="#374151">경기 삭제: 시작 전만 가능, 전체 신청 제거, 재확인 필요</text>
<text x="40" y="998" font-size="13" font-weight="600" fill="#1D9E75">③</text>
<text x="64" y="998" font-size="13" fill="#374151">무작위로 주장 2명 뽑기 (파랑/빨강 표시, 다시 뽑기 가능)</text>
<text x="40" y="1022" font-size="13" font-weight="600" fill="#b91c1c">!</text>
<text x="64" y="1022" font-size="13" fill="#b91c1c">모두 관리 PIN 필요; 단 신청 명단 자체는 수정 불가</text>
<rect x="16" y="1068" width="728" height="158" rx="12" fill="#ffffff" stroke="#e5e7eb"/>
<circle cx="40" cy="1092" r="13" fill="#1D9E75"/><text x="40" y="1097" font-size="14" font-weight="600" fill="#ffffff" text-anchor="middle">6</text>
<text x="64" y="1098" font-size="16" font-weight="600" fill="#0b3d33">규칙 요약</text>
<text x="40" y="1122" font-size="13" font-weight="600" fill="#9ca3af">•</text>
<text x="64" y="1122" font-size="13" fill="#374151">PIN: 관리 PIN은 경기 전체, 개인 PIN은 본인; 경기 내 고유</text>
<text x="40" y="1146" font-size="13" font-weight="600" fill="#9ca3af">•</text>
<text x="64" y="1146" font-size="13" fill="#374151">만료: 시작 후 회색 읽기전용; 30일 후 자동 삭제, 링크도 만료</text>
<text x="40" y="1170" font-size="13" font-weight="600" fill="#9ca3af">•</text>
<text x="64" y="1170" font-size="13" fill="#374151">공유: 각 경기 고정 링크를 친구에게 전달</text>
<text x="40" y="1194" font-size="13" font-weight="600" fill="#9ca3af">•</text>
<text x="64" y="1194" font-size="13" fill="#374151">대기: 마감 시 대기 명단; 누군가 빠지면 순서대로 자동 승급</text>
</svg>
